{"title":"The.Details.2011.480p.BRRip.XviD.AC3-PTpOWeR","uid":8398082,"size":1564915757,"categoryP":"video","categoryS":"movies","magnet":"?xt=urn:btih:e30a3559b0ce6f3ee44465bc88f1ff0fd651936c&amp;dn=The.Details.2011.480p.BRRip.XviD.AC3-PTpOWeR&amp;tr=udp%3A%2F%2Ftracker.openbittorrent.com%3A80&amp;tr=udp%3A%2F%2Fopen.demonii.com%3A1337&amp;tr=udp%3A%2F%2Ftracker.coppersurfer.tk%3A6969&amp;tr=udp%3A%2F%2Fexodus.desync.com%3A6969","seeders":1,"leechers":1,"uploader":"hdporn","files":2,"time":1366622372,"description":"\nThe.Details.2011.480p.BRRip.XviD.AC3-PTpOWeR\n\n\n\nFormat : AVI\nFormat/Info : Audio Video Interleave\nFile size : 1.46 GiB\nDuration : 1h 41mn\nOverall bit rate : 2 056 Kbps\nWriting application : VirtualDubMod 1.5.10.2 (build 2540/release)\nWriting library : VirtualDubMod build 2540/release\n\nVideo\nFormat : MPEG-4 Visual\nCodec ID : XVID\nCodec ID/Hint : XviD\nDuration : 1h 41mn\nBit rate : 1 599 Kbps\nWidth : 720 pixels\nHeight : 400 pixels\nDisplay aspect ratio : 16:9\nFrame rate : 23.976 fps\nColor space : YUV\nChroma subsampling : 4:2:0\nBit depth : 8 bits\nScan type : Progressive\nCompression mode : Lossy\nBits/(Pixel*Frame) : 0.232\nStream size : 1.13 GiB (78%)\nWriting library : XviD 64\n\nAudio\nFormat : AC-3\nFormat/Info : Audio Coding 3\nMode extension : CM (complete main)\nCodec ID : 2000\nDuration : 1h 41mn\nBit rate mode : Constant\nBit rate : 448 Kbps\nChannel(s) : 6 channels\nChannel positions : Front: L C R, Side: L R, LFE\nSampling rate : 48.0 KHz\nBit depth : 16 bits\nCompression mode : Lossy\nStream size : 325 MiB\n\nSCREENSHOTS:\n &lt;a href=&quot;\nhttp://uppix.net/b/1/5/ea9669fd050482842200ed0cb6320.jpg&quot; rel=&quot;nofollow&quot; target=&quot;_NEW&quot;&gt;\nhttp://uppix.net/b/1/5/ea9669fd050482842200ed0cb6320.jpg&lt;/a&gt;\n &lt;a href=&quot;\nhttp://uppix.net/a/b/2/073524e408ef8884f438ab80efa18.jpg&quot; rel=&quot;nofollow&quot; target=&quot;_NEW&quot;&gt;\nhttp://uppix.net/a/b/2/073524e408ef8884f438ab80efa18.jpg&lt;/a&gt;\n &lt;a href=&quot;\nhttp://uppix.net/8/7/2/47f80ac519a9dcae4c512821f552a.jpg&quot; rel=&quot;nofollow&quot; target=&quot;_NEW&quot;&gt;\nhttp://uppix.net/8/7/2/47f80ac519a9dcae4c512821f552a.jpg&lt;/a&gt;\n &lt;a href=&quot;\nhttp://uppix.net/d/4/6/cd89d92b8e7b39e745c62b9df7bb9.jpg&quot; rel=&quot;nofollow&quot; target=&quot;_NEW&quot;&gt;\nhttp://uppix.net/d/4/6/cd89d92b8e7b39e745c62b9df7bb9.jpg&lt;/a&gt;\n &lt;a href=&quot;\nhttp://uppix.net/d/1/9/0b9adabe03da9d2f8b77edca9e625.jpg&quot; rel=&quot;nofollow&quot; target=&quot;_NEW&quot;&gt;\nhttp://uppix.net/d/1/9/0b9adabe03da9d2f8b77edca9e625.jpg&lt;/a&gt;\n &lt;a href=&quot;\nhttp://uppix.net/4/d/3/8d1b2108e2d920a55a914217926e7.jpg&quot; rel=&quot;nofollow&quot; target=&quot;_NEW&quot;&gt;\nhttp://uppix.net/4/d/3/8d1b2108e2d920a55a914217926e7.jpg&lt;/a&gt;\n &lt;a href=&quot;\nhttp://uppix.net/5/1/b/3d1c56e32746d8275d7ffcc3ecce5.jpg&quot; rel=&quot;nofollow&quot; target=&quot;_NEW&quot;&gt;\nhttp://uppix.net/5/1/b/3d1c56e32746d8275d7ffcc3ecce5.jpg&lt;/a&gt;\n &lt;a href=&quot;\nhttp://uppix.net/a/e/8/92bd4fb4c51fc5835c57184617d54.jpg&quot; rel=&quot;nofollow&quot; target=&quot;_NEW&quot;&gt;\nhttp://uppix.net/a/e/8/92bd4fb4c51fc5835c57184617d54.jpg&lt;/a&gt;\n &lt;a href=&quot;\nhttp://uppix.net/e/7/1/33b7e03fb89dca653872277dd31ae.jpg&quot; rel=&quot;nofollow&quot; target=&quot;_NEW&quot;&gt;\nhttp://uppix.net/e/7/1/33b7e03fb89dca653872277dd31ae.jpg&lt;/a&gt;\n &lt;a href=&quot;\nhttp://uppix.net/8/c/b/0a95e08a36ae5f5d7bf5722cd8faf.jpg&quot; rel=&quot;nofollow&quot; target=&quot;_NEW&quot;&gt;\nhttp://uppix.net/8/c/b/0a95e08a36ae5f5d7bf5722cd8faf.jpg&lt;/a&gt;\n &lt;a href=&quot;\nhttp://uppix.net/8/8/9/727a90a6e9651958b0445078f8080.jpg&quot; rel=&quot;nofollow&quot; target=&quot;_NEW&quot;&gt;\nhttp://uppix.net/8/8/9/727a90a6e9651958b0445078f8080.jpg&lt;/a&gt;\n &lt;a href=&quot;\nhttp://uppix.net/b/f/d/908c63b3e13b9ff99adf8a78a79c6.jpg&quot; rel=&quot;nofollow&quot; target=&quot;_NEW&quot;&gt;\nhttp://uppix.net/b/f/d/908c63b3e13b9ff99adf8a78a79c6.jpg&lt;/a&gt;\n &lt;a href=&quot;\nhttp://uppix.net/b/4/8/100a61da6c14ff61abfd9a081a273.jpg&quot; rel=&quot;nofollow&quot; target=&quot;_NEW&quot;&gt;\nhttp://uppix.net/b/4/8/100a61da6c14ff61abfd9a081a273.jpg&lt;/a&gt;\n\n\n\n\n","torrent":{"xt":"urn:btih:e30a3559b0ce6f3ee44465bc88f1ff0fd651936c","amp;dn":"The.Details.2011.480p.BRRip.XviD.AC3-PTpOWeR","amp;tr":["udp%3A%2F%2Ftracker.openbittorrent.com%3A80","udp%3A%2F%2Fopen.demonii.com%3A1337","udp%3A%2F%2Ftracker.coppersurfer.tk%3A6969","udp%3A%2F%2Fexodus.desync.com%3A6969"],"infoHash":"e30a3559b0ce6f3ee44465bc88f1ff0fd651936c","infoHashBuffer":{"type":"Buffer","data":[227,10,53,89,176,206,111,62,228,68,101,188,136,241,255,15,214,81,147,108]},"announce":[],"urlList":[]}}